<?xml version="1.0" encoding="UTF-8"?>
<svg xmlns="http://www.w3.org/2000/svg" version="1.1" viewBox="0 0 1000 1000">
  <defs>
    <style>
      .cls-1 {
        fill: #fff;
      }
    </style>
  </defs>
  <!-- Generator: Adobe Illustrator 28.7.7, SVG Export Plug-In . SVG Version: 1.2.0 Build 194)  -->
  <g>
    <g id="Layer_1">
      <g>
        <path class="cls-1" d="M342,623.5v-130.8h317.6v130.8h-317.6Z"/>
        <path class="cls-1" d="M658.4,341.1v130.8h-317.2v-130.8h317.2Z"/>
        <g>
          <g>
            <path class="cls-1" d="M111.9,893.9v-67.5h49.9v8h-40.8v20.7h38.2v7.9h-38.2v23h42.4v8h-51.5Z"/>
            <path class="cls-1" d="M228.4,886.6c4.2,2.9,8.1,4.9,11.7,6.3l-2.7,6.2c-5-1.8-9.9-4.5-14.8-8.3-5.1,2.8-10.8,4.2-17,4.2s-11.9-1.5-17-4.4c-5.1-2.9-9-7.1-11.8-12.4s-4.1-11.4-4.1-18.1,1.4-12.7,4.1-18.2c2.8-5.5,6.7-9.6,11.8-12.5,5.1-2.9,10.8-4.3,17.1-4.3s12.1,1.5,17.2,4.4c5.1,3,9,7.1,11.7,12.4s4,11.3,4,18-.9,10.6-2.6,15c-1.7,4.4-4.3,8.3-7.8,11.6ZM208.3,875.2c5.3,1.4,9.6,3.6,13,6.5,5.4-4.8,8.1-12,8.1-21.6s-1-10.2-2.8-14.3c-1.9-4.1-4.7-7.3-8.3-9.5-3.7-2.3-7.8-3.4-12.3-3.4-6.8,0-12.5,2.3-17,6.8-4.5,4.6-6.7,11.4-6.7,20.4s2.2,15.5,6.7,20.2,10.1,7,17,7,6.3-.6,9.2-1.8c-2.9-1.8-5.9-3.1-9-3.9l2.2-6.5Z"/>
            <path class="cls-1" d="M296.4,826.3h9.1v39c0,6.8-.8,12.2-2.4,16.2-1.6,4-4.4,7.2-8.5,9.7s-9.5,3.8-16.1,3.8-11.8-1.1-15.9-3.3c-4.1-2.2-7-5.3-8.8-9.5-1.8-4.1-2.6-9.8-2.6-16.9v-39h9.1v39c0,5.9.6,10.2,1.7,13,1.1,2.8,3,4.9,5.7,6.4,2.7,1.5,6,2.3,10,2.3,6.7,0,11.5-1.5,14.4-4.5s4.3-8.7,4.3-17.2v-39Z"/>
            <path class="cls-1" d="M313.2,893.9l26.5-67.5h9.8l28.3,67.5h-10.4l-8.1-20.5h-28.9l-7.6,20.5h-9.7ZM333.1,866.1h23.4l-7.2-18.7c-2.2-5.7-3.8-10.3-4.9-14-.9,4.3-2.1,8.6-3.7,12.9l-7.6,19.8Z"/>
            <path class="cls-1" d="M384.7,893.9v-67.5h9.1v59.6h34v8h-43.1Z"/>
            <path class="cls-1" d="M462.3,893.9v-67.5h9.1v27.7h35.9v-27.7h9.1v67.5h-9.1v-31.8h-35.9v31.8h-9.1Z"/>
            <path class="cls-1" d="M528.9,861c0-11.2,3.1-20,9.2-26.3,6.2-6.3,14.1-9.5,23.8-9.5s12.1,1.5,17.2,4.5c5.1,3,9,7.1,11.7,12.5,2.7,5.3,4,11.4,4,18.1s-1.4,13-4.2,18.4c-2.8,5.4-6.8,9.5-12,12.3-5.2,2.8-10.8,4.2-16.8,4.2s-12.3-1.5-17.4-4.6c-5.1-3.1-9-7.3-11.6-12.6s-4-10.9-4-16.9ZM538.3,861.1c0,8.1,2.2,14.6,6.7,19.2s10.1,7,16.8,7,12.5-2.4,17-7.1c4.4-4.7,6.7-11.4,6.7-20.1s-.9-10.3-2.8-14.4c-1.9-4.1-4.7-7.3-8.3-9.5-3.7-2.3-7.8-3.4-12.3-3.4-6.5,0-12,2.2-16.7,6.5-4.7,4.3-7,11.6-7,21.8Z"/>
            <path class="cls-1" d="M652,826.3h9.1v39c0,6.8-.8,12.2-2.4,16.2-1.6,4-4.4,7.2-8.5,9.7-4.1,2.5-9.5,3.8-16.1,3.8s-11.8-1.1-15.9-3.3c-4.1-2.2-7-5.3-8.8-9.5-1.8-4.1-2.6-9.8-2.6-16.9v-39h9.1v39c0,5.9.6,10.2,1.7,13,1.1,2.8,3,4.9,5.7,6.4,2.7,1.5,6,2.3,10,2.3,6.7,0,11.5-1.5,14.4-4.5,2.9-3,4.3-8.7,4.3-17.2v-39Z"/>
            <path class="cls-1" d="M673.2,872.2l8.6-.7c.4,3.4,1.4,6.1,2.9,8.3,1.5,2.2,3.8,3.9,6.9,5.3,3.1,1.3,6.7,2,10.6,2s6.6-.5,9.2-1.5c2.7-1,4.7-2.4,6-4.2,1.3-1.8,2-3.7,2-5.8s-.6-4-1.9-5.6-3.3-2.9-6.2-4c-1.9-.7-6-1.8-12.3-3.3-6.3-1.5-10.8-2.9-13.3-4.2-3.3-1.7-5.8-3.8-7.4-6.3-1.6-2.5-2.4-5.3-2.4-8.4s1-6.6,3-9.6c2-3,4.9-5.2,8.7-6.7,3.8-1.5,8-2.3,12.7-2.3s9.6.8,13.5,2.4c3.9,1.6,6.9,4,9,7.1,2.1,3.1,3.2,6.7,3.4,10.6l-8.8.6c-.5-4.3-2.1-7.5-4.8-9.7-2.7-2.2-6.7-3.3-12-3.3s-9.6,1-12.1,3c-2.5,2-3.8,4.4-3.8,7.2s.9,4.4,2.7,6c1.8,1.6,6.4,3.2,13.8,4.8,7.4,1.6,12.5,3.1,15.3,4.3,4,1.8,7,4.1,8.9,6.9,1.9,2.8,2.9,6,2.9,9.6s-1.1,7-3.2,10.2c-2.1,3.2-5.1,5.7-9.1,7.4-3.9,1.8-8.4,2.6-13.3,2.6s-11.5-.9-15.7-2.7c-4.2-1.8-7.5-4.5-9.9-8-2.4-3.6-3.7-7.6-3.8-12.1Z"/>
            <path class="cls-1" d="M742.2,893.9v-67.5h9.1v67.5h-9.1Z"/>
            <path class="cls-1" d="M767.4,893.9v-67.5h9.4l36.3,53v-53h8.8v67.5h-9.4l-36.3-53.1v53.1h-8.8Z"/>
            <path class="cls-1" d="M869.5,867.4v-7.9h29.3s0,25,0,25c-4.5,3.5-9.1,6.1-13.9,7.9-4.8,1.8-9.7,2.6-14.7,2.6s-12.9-1.4-18.5-4.3c-5.5-2.8-9.7-6.9-12.6-12.3-2.8-5.4-4.2-11.4-4.2-18s1.4-12.7,4.2-18.4c2.8-5.7,6.9-9.9,12.1-12.7,5.3-2.8,11.4-4.1,18.2-4.1s9.5.8,13.5,2.4c4,1.6,7.2,3.8,9.5,6.6,2.3,2.8,4,6.5,5.2,11.1l-8.2,2.2c-1-3.4-2.3-6.1-3.9-8.1-1.5-2-3.7-3.5-6.6-4.7-2.9-1.2-6-1.8-9.5-1.8s-7.8.6-10.8,1.9c-3,1.2-5.5,2.9-7.4,4.9s-3.3,4.3-4.4,6.7c-1.8,4.2-2.6,8.7-2.6,13.6s1.1,11.1,3.2,15.1c2.1,4.1,5.2,7.1,9.3,9,4,2,8.4,2.9,12.9,2.9s7.8-.7,11.6-2.2c3.8-1.5,6.6-3.1,8.6-4.8v-12.6h-20.3Z"/>
          </g>
          <g>
            <path class="cls-1" d="M104.7,950.6c0-13.3,3.6-23.7,10.8-31.3,7.2-7.5,16.4-11.3,27.8-11.3s14.1,1.8,20.1,5.3c6,3.5,10.5,8.5,13.6,14.8,3.1,6.3,4.7,13.5,4.7,21.5s-1.6,15.4-4.9,21.8c-3.3,6.4-8,11.3-14,14.6-6,3.3-12.5,5-19.5,5s-14.3-1.8-20.3-5.5c-6-3.6-10.5-8.6-13.6-14.9-3.1-6.3-4.6-13-4.6-20ZM115.7,950.8c0,9.7,2.6,17.3,7.8,22.8,5.2,5.6,11.7,8.3,19.6,8.3s14.6-2.8,19.8-8.4c5.2-5.6,7.8-13.6,7.8-23.9s-1.1-12.2-3.3-17.1c-2.2-4.9-5.5-8.6-9.7-11.3-4.3-2.7-9-4-14.3-4-7.5,0-14,2.6-19.5,7.7-5.4,5.2-8.1,13.8-8.1,25.9Z"/>
            <path class="cls-1" d="M195.4,989.7v-80.2h30.3c5.3,0,9.4.3,12.2.8,4,.7,7.3,1.9,9.9,3.7,2.7,1.8,4.8,4.4,6.4,7.7,1.6,3.3,2.4,7,2.4,10.9,0,6.8-2.2,12.6-6.5,17.3-4.4,4.7-12.2,7.1-23.6,7.1h-20.6v32.6h-10.6ZM206,947.6h20.8c6.9,0,11.8-1.3,14.7-3.8,2.9-2.6,4.3-6.1,4.3-10.8s-.9-6.2-2.6-8.6c-1.7-2.4-3.9-4-6.7-4.7-1.8-.5-5.1-.7-9.9-.7h-20.6v28.7Z"/>
            <path class="cls-1" d="M270.3,989.7v-80.2h30.3c5.3,0,9.4.3,12.2.8,4,.7,7.3,1.9,9.9,3.7,2.7,1.8,4.8,4.4,6.4,7.7,1.6,3.3,2.4,7,2.4,10.9,0,6.8-2.2,12.6-6.5,17.3-4.4,4.7-12.2,7.1-23.6,7.1h-20.6v32.6h-10.6ZM281,947.6h20.8c6.9,0,11.8-1.3,14.7-3.8,2.9-2.6,4.3-6.1,4.3-10.8s-.9-6.2-2.6-8.6c-1.7-2.4-3.9-4-6.7-4.7-1.8-.5-5.1-.7-9.9-.7h-20.6v28.7Z"/>
            <path class="cls-1" d="M342,950.6c0-13.3,3.6-23.7,10.8-31.3,7.2-7.5,16.4-11.3,27.8-11.3s14.1,1.8,20.1,5.3c6,3.5,10.5,8.5,13.6,14.8,3.1,6.3,4.7,13.5,4.7,21.5s-1.6,15.4-4.9,21.8-8,11.3-14,14.6c-6,3.3-12.5,5-19.5,5s-14.3-1.8-20.3-5.5c-6-3.6-10.5-8.6-13.6-14.9-3.1-6.3-4.6-13-4.6-20ZM353,950.8c0,9.7,2.6,17.3,7.8,22.8,5.2,5.6,11.7,8.3,19.6,8.3s14.6-2.8,19.8-8.4c5.2-5.6,7.8-13.6,7.8-23.9s-1.1-12.2-3.3-17.1c-2.2-4.9-5.5-8.6-9.7-11.3-4.3-2.7-9-4-14.3-4-7.5,0-14,2.6-19.5,7.7-5.4,5.2-8.1,13.8-8.1,25.9Z"/>
            <path class="cls-1" d="M432.9,989.7v-80.2h35.7c7.2,0,12.6.7,16.4,2.2,3.7,1.4,6.7,4,8.9,7.6,2.2,3.7,3.3,7.7,3.3,12.1s-1.8,10.5-5.5,14.4c-3.7,3.9-9.4,6.4-17.1,7.4,2.8,1.4,5,2.7,6.4,4,3.1,2.8,6.1,6.4,8.8,10.7l14,21.8h-13.4l-10.6-16.7c-3.1-4.8-5.7-8.5-7.7-11.1-2-2.6-3.8-4.3-5.4-5.4-1.6-1-3.2-1.7-4.9-2.1-1.2-.3-3.2-.4-5.9-.4h-12.3v35.6h-10.6ZM443.5,944.9h22.9c4.9,0,8.7-.5,11.4-1.5,2.7-1,4.8-2.6,6.3-4.8,1.4-2.2,2.1-4.6,2.1-7.2,0-3.8-1.4-6.9-4.1-9.4-2.8-2.4-7.1-3.7-13.1-3.7h-25.5v26.5Z"/>
            <path class="cls-1" d="M532.3,989.7v-70.8h-26.5v-9.5h63.8v9.5h-26.6v70.8h-10.6Z"/>
            <path class="cls-1" d="M633.2,909.5h10.6v46.4c0,8.1-.9,14.5-2.7,19.2-1.8,4.7-5.1,8.6-9.9,11.6-4.8,3-11,4.5-18.8,4.5s-13.7-1.3-18.5-3.9c-4.8-2.6-8.2-6.3-10.3-11.2-2-4.9-3.1-11.6-3.1-20.1v-46.4h10.6v46.3c0,7,.6,12.1,1.9,15.4,1.3,3.3,3.5,5.8,6.7,7.6,3.2,1.8,7,2.7,11.6,2.7,7.8,0,13.4-1.8,16.7-5.3,3.3-3.5,5-10.3,5-20.4v-46.3Z"/>
            <path class="cls-1" d="M661.5,989.7v-80.2h10.9l42.3,63v-63h10.2v80.2h-10.9l-42.3-63v63h-10.2Z"/>
            <path class="cls-1" d="M744.6,989.7v-80.2h10.6v80.2h-10.6Z"/>
            <path class="cls-1" d="M794.5,989.7v-70.8h-26.5v-9.5h63.8v9.5h-26.6v70.8h-10.6Z"/>
            <path class="cls-1" d="M865.3,989.7v-34l-31-46.2h12.9l15.9,24.2c2.9,4.5,5.7,9,8.2,13.6,2.4-4.2,5.3-8.9,8.8-14.2l15.6-23.6h12.4l-32.1,46.2v34h-10.6Z"/>
          </g>
        </g>
        <path class="cls-1" d="M960.6,318c-2.7.8-1.6,2.8,0,0h0Z"/>
        <path class="cls-1" d="M960.6,318L506.1,10.7c-3.3-2.3-8.8-2.4-12-.2-31,20.7-62.1,41.4-93,62.2-21.4,14.3-42.7,28.8-64.1,43.1-21.5,14.4-43,28.8-64.5,43.2-22.3,14.9-44.5,29.9-66.8,44.8-21.5,14.4-43,28.8-64.5,43.2-22.3,14.9-44.5,29.9-66.8,44.8-11.7,7.8-23.3,15.7-34.9,23.6v123.9h60.2v365.3c3,.2,5.7.7,8.4.7,96,0,192.1,0,288.1,0,167,.2,334.1.5,501.1.8,1.1,0,2.2,0,3.5,0v-366h59.7v-122.3c-1.6,2.8-2.7.8,0,0ZM801.6,678.3v2.3H200.2c0-1.2-.2-2.4-.2-3.6,0-101.3,0-202.7,0-304,0-2.7.8-4.2,3.2-5.7,28.7-19,57.2-38.3,85.8-57.5,19.9-13.3,39.7-26.6,59.6-40,19.9-13.3,39.8-26.6,59.6-40,20.4-13.7,40.7-27.6,61.1-41.3,9-6.1,18.1-12.1,27.1-18.3,2.1-1.4,3.5-1.3,5.6,0,23,15.5,46.1,30.9,69.1,46.3,51,34.1,102.1,68.1,153.1,102.2,24.9,16.6,49.8,33.3,74.7,50,1.5,1,2.8,2.1,2.8,4.7-.1,101.6-.1,203.2-.1,304.9Z"/>
      </g>
    </g>
  </g>
</svg>