<?xml version="1.0" encoding="UTF-8"?>
<svg xmlns="http://www.w3.org/2000/svg" version="1.1" viewBox="0 0 72.1 72.3">
  <defs>
    <style>
      .cls-1 {
        fill: #2c4350;
      }

      .cls-2 {
        fill: #bea084;
      }
    </style>
  </defs>
  <!-- Generator: Adobe Illustrator 28.6.0, SVG Export Plug-In . SVG Version: 1.2.0 Build 709)  -->
  <g>
    <g id="Layer_1">
      <g>
        <path class="cls-2" d="M41.2,68.8H.5V13.7h13.7v2.7H3.1v49.7h36.6l1.4,2.7Z"/>
        <path class="cls-2" d="M71.6,68.8h-10.5l-.9-2.7h8.7V16.4H29.5v-2.7h42.1v55Z"/>
        <path class="cls-1" d="M60.9,72.2v-1.3c-1.8-.3-3.2-1-4.2-2.1-1-1.1-2.7-3.8-4.9-8-2.3-4.3-6.8-12.5-8-14-1.2-1.5-2.3-2.4-3.4-2.6h0c2.9-1,5.1-2.3,6.7-4.2,1.6-1.8,2.3-4,2.3-6.6s-1.5-6.3-4.5-8.3c-3-2-7.2-3-12.8-3h-2.2v2.6c5.9.2,8.8,3.1,8.8,8.8s-.8,5.7-2.4,7.3c-1.4,1.3-3.6,2.1-6.5,2.3v2.7c1,.1,1.8.3,2.3.6,1,.5,1.9,1.3,2.7,2.5.9,1.2,5,8.9,6.8,12.5,2.6,5.3,4.8,8.9,6.5,10.9h12.8,0Z"/>
        <path class="cls-1" d="M28.1,53.7c-.8-.9-1.2-2.5-1.2-4.7V4h5.6c2.7,0,4.8.6,6.4,1.8,1.6,1.2,2.7,3,3.5,5.6h1.3l-.4-11.1h-1.4c-.9.6-2.4.4-4.4.4H6.5c-2,0-3.4.2-4.4-.4H.8l-.4,11.1h1.3c.8-2.5,1.9-4.4,3.5-5.6,1.6-1.2,3.7-1.8,6.4-1.8h5.6v45c0,2.3-.4,3.9-1.1,4.8-.8.9-2.2,1.5-4.4,1.9v1.3h20.9v-1.3c-2.1-.4-3.5-1-4.3-2"/>
      </g>
    </g>
  </g>
</svg>