<svg width="160" height="92" viewBox="0 0 160 92" fill="none" xmlns="http://www.w3.org/2000/svg">
<g clip-path="url(#clip0_6426_39)">
<path d="M151.787 91.5007V89.0123L154.09 85.509H152.894L151.261 88.0705L149.627 85.509H148.431L150.742 89.0123V91.5007H151.787ZM145.644 91.5007V86.4325H147.447V85.507H142.796V86.4325H144.599V91.5007H145.644ZM141.198 85.509H140.154V91.5027H141.198V85.509ZM138.171 91.5007V85.507H137.126V89.6577L134.081 85.507H133.01V91.5007H134.054V87.214L137.162 91.5007H138.171ZM128.449 91.6082C130.182 91.6082 131.029 90.6117 131.029 89.128V85.507H129.966V89.1016C129.966 90.0535 129.44 90.6746 128.449 90.6746C127.459 90.6746 126.931 90.0555 126.931 89.1016V85.507H125.868V89.128C125.868 90.6096 126.725 91.6082 128.447 91.6082M123.887 91.5007V85.507H122.415L120.799 89.6212L119.174 85.507H117.701V91.5007H118.746V86.873L120.577 91.5007H121.023L122.844 86.873V91.5007H123.889H123.887ZM115.717 91.5007V85.507H114.244L112.629 89.6212L111.003 85.507H109.531V91.5007H110.575V86.873L112.405 91.5007H112.851L114.672 86.873V91.5007H115.717ZM104.771 90.6746C103.565 90.6746 102.798 89.7409 102.798 88.5089C102.798 87.2769 103.567 86.3432 104.771 86.3432C105.975 86.3432 106.743 87.2688 106.743 88.5089C106.743 89.749 105.967 90.6746 104.771 90.6746ZM104.771 91.6082C106.548 91.6082 107.816 90.2971 107.816 88.5089C107.816 86.7207 106.548 85.4096 104.771 85.4096C102.994 85.4096 101.727 86.7207 101.727 88.5089C101.727 90.2971 102.986 91.6082 104.771 91.6082ZM98.0484 91.6082C99.2444 91.6082 99.9866 90.9709 100.44 90.2524L99.5469 89.8039C99.2605 90.2991 98.6817 90.6746 98.0464 90.6746C96.8685 90.6746 95.9931 89.7572 95.9931 88.5089C95.9931 87.2606 96.8685 86.3432 98.0464 86.3432C98.6797 86.3432 99.2605 86.7106 99.5469 87.214L100.43 86.7471C99.9927 86.0286 99.2424 85.4075 98.0464 85.4075C96.2876 85.4075 94.9222 86.6558 94.9222 88.5069C94.9222 90.358 96.2876 91.6062 98.0464 91.6062M87.9154 91.6184C88.942 91.6184 89.781 91.178 90.3619 90.5224V88.2856H87.5402V89.2112H89.3252V90.1367C89.057 90.3965 88.5225 90.6766 87.9154 90.6766C86.7375 90.6766 85.8622 89.7592 85.8622 88.5109C85.8622 87.2627 86.7375 86.3453 87.9154 86.3453C88.5769 86.3453 89.1376 86.6964 89.4603 87.145L90.3095 86.6517C89.8355 85.9698 89.0771 85.4116 87.9174 85.4116C86.1849 85.4116 84.7932 86.6253 84.7932 88.5109C84.7932 90.3965 86.1849 91.6204 87.9174 91.6204M83.0667 91.5007V85.507H82.022V89.6577L78.9764 85.507H77.9054V91.5007H78.9502V87.214L82.0562 91.5007H83.0647H83.0667ZM75.9248 85.509H74.8801V91.5027H75.9248V85.509ZM71.183 91.5007L73.5227 85.507H72.3347L70.5316 90.3498L68.7285 85.507H67.5405L69.8801 91.5007H71.183ZM66.175 85.509H65.1303V91.5027H66.175V85.509ZM63.4966 91.5007V90.5751H60.8726V85.507H59.8278V91.5007H63.4966ZM55.4793 91.5007L52.8715 88.3283L55.2918 85.507H53.9969L51.6674 88.3546V85.507H50.6226V91.5007H51.6674V89.5867L52.1938 88.9676L54.1845 91.5007H55.4793ZM46.7743 88.3384H45.3363V86.4346H46.7743C47.3633 86.4346 47.7929 86.8019 47.7929 87.3784C47.7929 87.9548 47.3633 88.3404 46.7743 88.3404M48.9082 91.5007L47.4439 89.1462C48.166 89.0305 48.8638 88.446 48.8638 87.3845C48.8638 86.2702 48.0873 85.507 46.9095 85.507H44.2935V91.5007H45.3383V89.264H46.383L47.6961 91.5007H48.9102H48.9082ZM41.014 89.4162H38.872L39.943 86.5584L41.014 89.4162ZM42.9341 91.5007L40.5945 85.507H39.2916L36.9519 91.5007H38.1399L38.5776 90.3417H41.3105L41.7482 91.5007H42.9361H42.9341ZM34.7474 91.5007V86.4325H36.5506V85.507H31.8996V86.4325H33.7027V91.5007H34.7474ZM28.3982 91.6082C29.9956 91.6082 30.7015 90.7456 30.7015 89.749C30.7015 87.5204 27.2364 88.2126 27.2364 87.0901C27.2364 86.6497 27.6297 86.3453 28.2368 86.3453C28.8439 86.3453 29.4954 86.5604 29.9694 87.0374L30.5583 86.2559C30.0137 85.7181 29.2554 85.4116 28.3357 85.4116C27.0227 85.4116 26.1655 86.1748 26.1655 87.1734C26.1655 89.3756 29.6305 88.5921 29.6305 89.8505C29.6305 90.2544 29.2998 90.6766 28.4426 90.6766C27.5854 90.6766 26.9601 90.2808 26.5588 89.8404L25.9698 90.6584C26.5043 91.2165 27.301 91.6103 28.3982 91.6103M20.0603 89.4162H17.9183L18.9893 86.5584L20.0603 89.4162ZM21.9804 91.5007L19.6407 85.507H18.3378L15.9982 91.5007H17.1861L17.6238 90.3417H20.3567L20.7944 91.5007H21.9824H21.9804Z" fill="#2C4350"/>
<path d="M5.90957 87.7437C5.93982 87.6991 5.97209 87.6565 6.00638 87.6138C6.05479 87.553 6.11126 87.4961 6.16773 87.4433C6.17177 87.4393 6.1758 87.4352 6.17983 87.4332C6.46624 87.1754 6.8434 87.0171 7.25888 87.0171C7.62798 87.0171 7.96481 87.1429 8.23709 87.35C8.04346 87.5672 7.86598 87.8006 7.68042 88.0259C7.56344 87.9406 7.42024 87.8899 7.2609 87.8899C7.12778 87.8899 7.00274 87.9284 6.89584 87.9893C6.82121 88.038 6.76676 88.0908 6.73045 88.1274C6.5933 88.2674 6.52473 88.4359 6.52473 88.6327C6.52473 88.8195 6.58725 88.9798 6.70827 89.1158C6.71835 89.126 6.7244 89.1381 6.7365 89.1463C6.7365 89.1463 6.73852 89.1483 6.74054 89.1503C6.87164 89.2762 7.05316 89.3513 7.25283 89.3533C7.29721 89.3533 7.33956 89.3492 7.3799 89.3411C7.38393 89.3411 7.38595 89.3411 7.38998 89.3391C7.52512 89.3107 7.6421 89.2477 7.74496 89.1442C7.89825 88.9879 8.03943 88.7687 8.1665 88.4927C8.33995 87.9548 8.61224 87.5002 8.98536 87.1247C9.39682 86.7045 9.89701 86.4935 10.486 86.4935C10.49 86.4935 10.492 86.4935 10.496 86.4935C10.5001 86.4935 10.5021 86.4935 10.5061 86.4935C10.5586 86.4935 10.611 86.4975 10.6614 86.5016C10.6755 86.5016 10.6897 86.5016 10.7038 86.5036C10.7461 86.5077 10.7885 86.5137 10.8308 86.5219C10.8611 86.5259 10.8914 86.53 10.9216 86.5361C10.9398 86.5401 10.9599 86.5462 10.9781 86.5503C11.0991 86.5767 11.2141 86.6152 11.325 86.6619C11.329 86.6619 11.3331 86.666 11.3371 86.668C11.3915 86.6924 11.446 86.7187 11.4984 86.7472C11.799 86.9116 12.0551 87.145 12.2467 87.4312C11.7647 86.1707 10.5525 85.2756 9.13058 85.2756C7.59168 85.2756 6.29883 86.323 5.91158 87.7458" fill="#2C4350"/>
<path d="M10.6534 90.7741C10.6392 90.7761 10.6251 90.7802 10.611 90.7822V90.7761C10.5747 90.7781 10.5384 90.7822 10.5041 90.7822C9.73566 90.7822 9.06403 90.3621 8.69493 89.7389C8.98133 89.6537 9.27782 89.6151 9.56422 89.5258C9.75986 89.7288 10.0241 89.8668 10.3165 89.9013C10.9115 89.9257 11.1596 89.7308 11.3694 89.5197C11.4843 89.404 11.5711 89.2762 11.6316 89.1382C11.6941 88.9859 11.7304 88.8154 11.7304 88.6348C11.7304 88.2836 11.5892 87.967 11.3633 87.7356C11.1193 87.4941 10.8268 87.3723 10.4839 87.3723C10.2984 87.3723 10.129 87.4088 9.97164 87.4799C9.92928 87.5002 9.88693 87.5225 9.84659 87.5469C9.75986 87.5996 9.67717 87.6626 9.60052 87.7417C9.36858 87.9772 9.18101 88.2634 9.04184 88.6043C8.88049 89.0894 8.64854 89.4832 8.35004 89.7856C8.14633 89.9906 7.90833 90.1246 7.64008 90.1895C7.51907 90.224 7.392 90.2464 7.2609 90.2464C7.11367 90.2464 6.97047 90.224 6.83533 90.1875C6.6054 90.1286 6.39363 90.017 6.20605 89.8506C6.1758 89.8242 6.14555 89.7978 6.11731 89.7694C6.03865 89.6902 5.97007 89.609 5.91158 89.5218C6.29883 90.9486 7.59168 91.998 9.1326 91.998C10.5565 91.998 11.7707 91.0988 12.2508 89.8364C11.8978 90.3641 11.3189 90.7233 10.6554 90.7721" fill="#2C4350"/>
<path d="M150.426 70.7755H159.714V68.4454H153.092V65.9448H158.842V63.6147H153.092V61.1994H159.627V58.8693H150.426V70.7755ZM138.715 70.9785C140.946 70.9785 142.671 70.128 143.925 69.0908V63.9212H138.629V66.1823H141.329V67.8832C140.65 68.3601 139.778 68.5976 138.802 68.5976C136.642 68.5976 135.109 66.9982 135.109 64.8224V64.7879C135.109 62.7643 136.66 61.0796 138.611 61.0796C140.022 61.0796 140.857 61.5221 141.799 62.2873L143.49 60.2982C142.217 59.2427 140.894 58.6663 138.697 58.6663C135.002 58.6663 132.302 61.4389 132.302 64.8244V64.8589C132.302 68.3784 134.916 70.9825 138.713 70.9825M119.706 65.7906L121.326 61.9301L122.945 65.7906H119.704H119.706ZM114.898 70.7755H117.633L118.748 68.1044H123.905L125.021 70.7755H127.826L122.598 58.784H120.124L114.896 70.7755H114.898ZM101.237 70.7755H110.003V68.3946H103.922V58.8693H101.239V70.7755H101.237ZM86.5298 70.7755H95.2933V68.3946H89.2123V58.8693H86.5298V70.7755ZM76.8768 70.7755H79.5593V58.8693H76.8768V70.7755ZM64.3417 70.8587H66.7115L71.6429 58.8673H68.7506L65.5619 67.2519L62.3732 58.8673H59.4123L64.3437 70.8587H64.3417Z" fill="#2C4350"/>
<path d="M40.4352 67.5665H3.78374V17.9851H12.9768V20.3842H6.16773V65.1674H39.1665L40.4352 67.5665Z" fill="#BEA084"/>
<path d="M160 54.5521H152.929L153.14 52.155H157.616V24.8556H123.05L123.262 22.4565H160V54.5521Z" fill="#BEA084"/>
<path d="M63.2243 75.1393V73.7754C61.3647 73.4892 59.9004 72.7626 58.8294 71.5935C57.7585 70.4243 56.0461 67.6457 53.6923 63.2555C51.2862 58.7374 46.6029 50.1822 45.3383 48.6335C44.0737 47.0849 42.8978 46.1817 41.8147 45.9219V45.7656C44.8361 44.8827 47.1555 43.4801 48.7731 41.556C50.3907 39.6339 51.1994 37.3342 51.1994 34.6571C51.1994 30.9427 49.6444 28.0585 46.5323 26.0045C43.4202 23.9524 38.9749 22.9254 33.1904 22.9254H30.8992V25.5904C37.0165 25.7487 40.0842 28.8176 40.0842 34.8113C40.0842 38.2659 39.2391 40.7928 37.5469 42.3902C36.0625 43.7947 33.8035 44.5802 30.7741 44.7507V47.5294C31.8451 47.6552 32.6458 47.8521 33.1702 48.118C34.1646 48.6254 35.1186 49.5022 36.0363 50.7485C36.9519 51.9947 41.2056 60.0242 43.0975 63.7872C45.8425 69.2654 48.0934 73.0467 49.8461 75.1332H63.2263L63.2243 75.1393Z" fill="#2C4350"/>
<path d="M28.973 55.8577C28.1723 54.8834 27.7729 53.2536 27.7729 50.9661V3.97868H33.6139C36.4195 3.97868 38.6421 4.58961 40.2758 5.81149C41.9115 7.03337 43.1277 8.96767 43.9264 11.6184H45.2818L44.8179 0.00250244H43.3839C42.4279 0.652005 40.9051 0.447006 38.8135 0.447006H6.46825C4.42915 0.447006 2.90638 0.652005 1.89792 0.00250244H0.465908L0 11.6164H1.35537C2.15407 8.96564 3.37027 7.03134 5.00599 5.80946C6.64171 4.58758 8.86233 3.97665 11.6699 3.97665H17.5109V50.887C17.5109 53.3043 17.1135 54.9666 16.3189 55.876C15.5242 56.7853 13.9853 57.4611 11.7022 57.9016V59.2655H33.4667V57.9016C31.2723 57.5119 29.7737 56.8299 28.975 55.8557" fill="#2C4350"/>
<path d="M138.003 49.7133V43.0458H142.289C144.254 43.0458 145.377 43.9125 145.662 45.997H146.454V38.412H145.662C145.418 39.5243 145.039 40.1352 144.524 40.602C144.01 41.0689 143.264 41.3023 142.289 41.3023H138.003V31.712H142.717C144.044 31.712 145.008 31.988 145.611 32.5401C146.214 33.0922 146.719 33.8127 147.126 35.406H147.838V29.9685H129.595V30.6849C130.793 30.9163 131.6 31.2533 132.017 31.6978C132.435 32.1402 132.643 32.9338 132.643 34.0806V49.8229C132.643 51.2133 132.441 52.151 132.037 52.6341C131.634 53.1192 130.819 53.4906 129.595 53.7484V54.4628H148.122L148.57 48.5138H147.858C146.832 51.5522 145.127 52.7193 142.749 52.7193H141.329C140.113 52.7193 139.254 52.494 138.754 52.0455C138.254 51.5949 138.003 50.8195 138.003 49.7154V49.7133ZM126.445 44.4666V43.7501H116.205V44.4666C117.871 44.7934 118.704 45.796 118.704 47.4725V51.1118C118.704 52.8431 117.485 53.7078 115.047 53.7078C112.608 53.7078 110.577 52.7802 109.236 50.9271C107.895 49.074 107.225 46.3745 107.225 42.8306C107.225 38.9864 107.899 36.0088 109.246 33.8959C110.594 31.783 112.5 30.7276 114.964 30.7276C116.792 30.7276 118.462 31.2796 119.972 32.3838C121.483 33.4879 122.596 34.9737 123.314 36.841H124.067V29.9705H123.314C122.772 30.5287 122.191 30.8087 121.568 30.8087C121.148 30.8087 120.47 30.6383 119.537 30.2973C117.762 29.6559 116.124 29.3372 114.619 29.3372C110.813 29.3372 107.657 30.5774 105.152 33.0577C102.647 35.5379 101.392 38.6535 101.392 42.4003C101.392 44.7446 101.957 46.9083 103.089 48.8913C104.22 50.8743 105.781 52.4047 107.772 53.4804C109.763 54.5582 112.044 55.0961 114.617 55.0961C118.478 55.0961 121.626 54.5095 124.065 53.3384V48.1464C124.065 47.0159 124.238 46.1796 124.583 45.6418C124.928 45.1039 125.547 44.7122 126.443 44.4666H126.445ZM97.2698 42.5221C97.2698 38.7611 95.9589 35.7287 93.3389 33.425C90.7189 31.1213 87.1449 29.9705 82.623 29.9705H70.1685V30.687C71.4553 31.028 72.2903 31.4156 72.6776 31.852C73.0628 32.2884 73.2564 33.0577 73.2564 34.1618V49.7823C73.2564 51.2133 73.0628 52.1429 72.6776 52.5732C72.2924 53.0035 71.4553 53.3952 70.1685 53.7484V54.4628H84.2466C88.2421 54.4628 91.4107 53.379 93.7544 51.2112C96.098 49.0435 97.2698 46.1472 97.2698 42.5221ZM91.4389 42.2786C91.4389 45.7128 90.6665 48.3717 89.1235 50.2512C87.5806 52.1327 85.3983 53.0725 82.5827 53.0725C81.1607 53.0725 80.1442 52.8553 79.5351 52.4189C78.926 51.9825 78.6214 51.2397 78.6214 50.1903V31.3608H81.79C84.8376 31.3608 87.2075 32.3391 88.8996 34.2937C90.5918 36.2504 91.4389 38.9113 91.4389 42.2765V42.2786ZM54.6887 54.4628H66.1871V53.7484C64.9367 53.4358 64.1158 53.0603 63.7245 52.6239C63.3352 52.1875 63.1396 51.4183 63.1396 50.3141V34.6124C63.1396 33.1815 63.3473 32.2377 63.7648 31.781C64.1823 31.3243 64.9891 30.961 66.1871 30.687V29.9705H54.6887V30.687C55.9493 30.9874 56.7782 31.3588 57.1776 31.8013C57.5769 32.2437 57.7766 33.0171 57.7766 34.1212V49.7823C57.7766 50.9007 57.6919 51.6558 57.5225 52.0515C57.3531 52.4473 57.0545 52.7741 56.629 53.0339C56.2014 53.2937 55.556 53.5312 54.6887 53.7504V54.4648V54.4628Z" fill="#2C4350"/>
<path d="M119.075 18.4276H118.367C117.437 20.3538 116.544 21.6588 115.688 22.3429C114.833 23.0269 113.629 23.3699 112.08 23.3699C110.531 23.3699 109.591 23.1872 109.059 22.8198C108.526 22.4545 108.26 21.7624 108.26 20.7455V4.33134C108.26 3.34085 108.448 2.63655 108.827 2.2164C109.204 1.79625 110.039 1.42279 111.334 1.09804V0.385614H99.8939V1.09804C101.126 1.3964 101.939 1.76581 102.332 2.20625C102.728 2.64669 102.925 3.41595 102.925 4.51401V20.094C102.925 21.5046 102.742 22.4342 102.373 22.8807C102.004 23.3273 101.179 23.7149 99.8939 24.0397V24.7521H118.369L119.077 18.4255L119.075 18.4276ZM85.3216 24.7521H97.1851V24.0397C96.1444 23.9585 95.3013 23.5749 94.6519 22.8909C94.0045 22.2048 93.3429 20.9951 92.6673 19.2598L85.3055 0.202942H81.9978L75.0354 18.5088C74.3476 20.3801 73.6518 21.7299 72.9519 22.556C72.25 23.3821 71.4291 23.8773 70.4852 24.0417V24.7541H78.3068V24.0417C76.6872 23.6074 75.8764 22.8543 75.8764 21.7827C75.8764 21.2813 76.0297 20.6176 76.3343 19.7895L77.4133 17.2767H86.2877L87.5705 20.299C87.8811 21.1392 88.0364 21.7624 88.0364 22.1703C88.0364 22.6717 87.8307 23.0614 87.4212 23.3394C87.0118 23.6175 86.3099 23.8509 85.3176 24.0417V24.7541L85.3216 24.7521ZM85.5213 15.2531H78.3088L81.8364 5.36852L85.5233 15.2531H85.5213ZM67.8793 24.7521L68.3251 18.8335H67.6171C66.5946 21.8578 64.9004 23.0167 62.5345 23.0167H61.1227C59.9125 23.0167 59.0573 22.7934 58.5612 22.3449C58.063 21.8963 57.8149 21.125 57.8149 20.0249V13.396H62.0787C64.0331 13.396 65.1505 14.2566 65.4348 16.3309H66.2235V8.78449H65.4348C65.1928 9.89068 64.8156 10.4996 64.3034 10.9624C63.7911 11.4272 63.0508 11.6585 62.0807 11.6585H57.8169V2.12303H62.5063C63.8274 2.12303 64.7874 2.39704 65.3864 2.94709C65.9855 3.49714 66.4877 4.20956 66.8931 5.79678H67.601V0.385614H49.4508V1.09804C50.6428 1.32942 51.4455 1.66432 51.859 2.10477C52.2745 2.54521 52.4822 3.33476 52.4822 4.47342V20.1345C52.4822 21.5188 52.2805 22.4504 51.8791 22.9315C51.4778 23.4125 50.667 23.7819 49.4508 24.0397V24.7521H67.8834H67.8793Z" fill="#2C4350"/>
</g>
<defs>
<clipPath id="clip0_6426_39">
<rect width="160" height="92" fill="white"/>
</clipPath>
</defs>
</svg>
